<svg width="64" height="67" viewBox="0 0 64 67" fill="none" xmlns="http://www.w3.org/2000/svg">
<path d="M45.8682 0C56.7139 0 64 7.96668 64 19.821V47.179C64 59.0333 56.7139 67 45.865 67H18.1318C7.28607 67 0 59.0333 0 47.179V19.821C0 7.96668 7.28607 0 18.1318 0H45.8682ZM49.3971 35.3427C45.9669 33.1024 43.3186 36.2485 42.6042 37.2545C41.9156 38.226 41.3235 39.2977 40.6993 40.3694C39.174 43.0141 37.4267 46.0634 34.4019 47.8369C30.0064 50.3848 26.6695 48.0374 24.2689 46.3296C23.3679 45.6934 22.4927 45.0919 21.6207 44.6909C19.4711 43.7194 17.5372 44.8257 14.6669 48.6424C13.1609 50.6372 11.6679 52.6147 10.1555 54.5853C9.25125 55.7642 9.46685 57.5827 10.6864 58.3709C12.6332 59.6259 15.008 60.3 17.6917 60.3H44.6604C46.1825 60.3 47.7077 60.0822 49.1622 59.5844C52.438 58.4642 55.038 55.899 56.3959 52.511C57.5415 49.6623 58.0981 46.2051 57.0266 43.3287C56.6694 42.3746 56.1353 41.4861 55.3855 40.7047C53.4194 38.6616 51.582 36.7532 49.3971 35.3427ZM20.7963 13.4C16.3847 13.4 12.8 17.1578 12.8 21.775C12.8 26.3922 16.3847 30.15 20.7963 30.15C25.2048 30.15 28.7927 26.3922 28.7927 21.775C28.7927 17.1578 25.2048 13.4 20.7963 13.4Z" fill="#D1D1D1"/>
</svg>
