<?xml version="1.0" encoding="UTF-8"?>
<svg version="1.1" viewBox="0, 0, 400,400" xmlns="http://www.w3.org/2000/svg">
<g fill-rule="evenodd">
<path d="m315.83 29.023c0 0.129-0.245 0.155-0.774 0.083-0.49-0.067-0.859-0.036-1.006 0.086-0.176 0.146-0.332 0.137-0.653-0.034-0.347-0.186-0.446-0.187-0.557-7e-3 -0.091 0.148-0.301 0.181-0.656 0.104-0.332-0.073-0.52-0.05-0.52 0.065 0 0.099-0.113 0.18-0.25 0.18-0.138 0-0.25-0.075-0.25-0.167 0-0.091-0.113-0.166-0.25-0.166-0.138 0-0.25 0.083-0.25 0.186 0 0.109-0.151 0.147-0.367 0.09-0.201-0.053-0.469-0.01-0.596 0.095-0.175 0.146-0.266 0.134-0.383-0.049-0.129-0.199-0.178-0.202-0.3-0.013-0.089 0.138-0.279 0.184-0.486 0.118-0.187-0.059-0.391-0.026-0.452 0.074-0.08 0.128-0.185 0.121-0.361-0.024-0.172-0.143-0.282-0.151-0.36-0.027-0.061 0.098-0.393 0.156-0.736 0.128s-0.66 8e-3 -0.704 0.079c-0.044 0.072-0.345 0.109-0.668 0.084-0.323-0.026-0.587 9e-3 -0.587 0.078s-0.282 0.128-0.625 0.131c-0.548 6e-3 -0.953 0.056-2.459 0.302-0.285 0.047-1.169 0.182-2.083 0.32-0.138 0.021-0.475 0.085-0.75 0.143-0.449 0.094-1.413 0.26-2.083 0.358-0.138 0.02-0.475 0.085-0.75 0.145-0.275 0.059-0.688 0.142-0.917 0.182-0.229 0.041-0.966 0.193-1.637 0.337-0.671 0.145-1.421 0.219-1.667 0.166-0.345-0.075-0.39-0.057-0.196 0.081 0.206 0.146 0.183 0.178-0.135 0.18-0.253 1e-3 -0.349-0.069-0.279-0.206 0.058-0.115 6e-3 -0.094-0.115 0.046-0.122 0.14-0.371 0.253-0.554 0.25-0.184-2e-3 -0.518 0.087-0.744 0.198-0.322 0.16-0.438 0.16-0.539 0-0.097-0.152-0.13-0.146-0.131 0.025-2e-3 0.146-0.124 0.197-0.336 0.141-0.183-0.048-0.376-0.018-0.428 0.067-0.053 0.084-0.165 0.11-0.251 0.058-0.085-0.053-0.155-0.029-0.155 0.052 0 0.082-0.093 0.159-0.208 0.171-0.685 0.072-1.242 0.175-1.475 0.272-0.147 0.061-0.541 0.127-0.875 0.145-0.335 0.018-0.608 0.075-0.608 0.125s-0.169 0.094-0.375 0.098c-0.207 3e-3 -1.088 0.202-1.959 0.441-0.871 0.24-1.77 0.473-2 0.519-0.229 0.046-1.521 0.386-2.87 0.755-1.35 0.369-2.581 0.623-2.736 0.563-0.18-0.069-0.241-0.042-0.17 0.074 0.07 0.113-0.184 0.249-0.681 0.364-0.436 0.101-0.924 0.216-1.084 0.255-0.161 0.038-0.292-0.015-0.292-0.119s-0.094-0.061-0.208 0.095c-0.202 0.275-0.592 0.416-1.459 0.527-0.229 0.029-0.416 0.067-0.416 0.084 0 0.016-0.224 0.066-0.497 0.11-0.273 0.045-0.536 0.132-0.584 0.195-0.047 0.064-0.311 0.141-0.586 0.173s-0.538 0.107-0.583 0.166c-0.046 0.06-0.168 0.124-0.271 0.143-0.751 0.139-1.107 0.234-2.063 0.555-2.677 0.899-4.714 1.466-4.97 1.385-0.203-0.065-0.221-0.047-0.067 0.064 0.153 0.11 0.048 0.203-0.375 0.333-0.438 0.134-0.588 0.131-0.59-0.012-2e-3 -0.108-0.074-0.083-0.164 0.057-0.089 0.137-0.163 0.185-0.164 0.105-2e-3 -0.08-0.104-0.062-0.227 0.04s-0.273 0.136-0.333 0.076c-0.06-0.061-0.11-0.014-0.11 0.102 0 0.121-0.108 0.171-0.25 0.117-0.137-0.053-0.25-0.016-0.25 0.083s-0.107 0.138-0.239 0.088c-0.131-0.051-0.266-0.011-0.299 0.088s-0.368 0.189-0.744 0.199c-0.377 0.01-0.66 0.059-0.63 0.107 0.062 0.102-6.894 2.513-7.363 2.552-0.169 0.015-0.345 0.075-0.391 0.135-0.046 0.059-0.234 0.134-0.417 0.166s-0.378 0.12-0.433 0.195-0.205 0.157-0.334 0.183c-0.128 0.026-0.358 0.102-0.512 0.168-0.153 0.067-0.378 0.137-0.5 0.155-0.121 0.019-0.315 0.092-0.429 0.164-0.115 0.071-0.277 0.088-0.361 0.036s-0.178-0.033-0.208 0.043c-0.048 0.118-1.177 0.561-1.973 0.774-0.381 0.102-1.891 0.659-3.833 1.413-0.963 0.374-1.861 0.638-1.995 0.587-0.135-0.052-0.192-0.041-0.128 0.024 0.143 0.142-0.584 0.538-1.12 0.61-0.213 0.029-0.489 0.13-0.614 0.225s-0.564 0.265-0.977 0.378c-0.412 0.112-0.975 0.308-1.25 0.435-0.917 0.423-5.831 2.335-6 2.335-0.091 0-0.269 0.097-0.394 0.216s-0.312 0.188-0.415 0.153c-0.103-0.034-0.292 0.042-0.419 0.169s-0.334 0.192-0.46 0.144-0.228-0.025-0.228 0.051c0 0.123-1.176 0.644-1.713 0.758-0.219 0.047-1.224 0.455-2.037 0.828-2.631 1.205-4.082 1.754-4.381 1.658-0.207-0.066-0.227-0.049-0.071 0.063 0.156 0.113 0.034 0.226-0.45 0.416-0.481 0.189-0.687 0.208-0.744 0.069-0.043-0.105-0.084-0.063-0.091 0.093-9e-3 0.188-0.209 0.321-0.597 0.393-0.321 0.061-0.583 0.168-0.583 0.24 0 0.071-0.204 0.181-0.453 0.243-0.248 0.063-0.776 0.262-1.172 0.442-0.395 0.18-0.803 0.275-0.906 0.212-0.11-0.068-0.141-0.041-0.076 0.065 0.062 0.1-0.047 0.23-0.245 0.293-0.196 0.062-1.293 0.559-2.438 1.103-1.146 0.545-2.121 0.953-2.167 0.907s-0.354 0.1-0.685 0.325-0.673 0.409-0.761 0.409c-0.087 0-0.463 0.14-0.836 0.312-0.373 0.171-0.978 0.443-1.344 0.605-0.367 0.162-1.262 0.584-1.988 0.937-0.727 0.353-1.355 0.609-1.395 0.569-0.041-0.04-0.187 0.04-0.325 0.178-0.139 0.139-0.359 0.211-0.489 0.161-0.131-0.05-0.199-0.029-0.151 0.048 0.047 0.076-0.305 0.309-0.783 0.518-0.478 0.208-1.079 0.489-1.336 0.623-0.257 0.135-0.58 0.202-0.717 0.149-0.138-0.053-0.21-0.03-0.16 0.05 0.049 0.08-0.528 0.435-1.283 0.788s-1.913 0.923-2.573 1.267c-0.712 0.371-1.321 0.586-1.5 0.528-0.207-0.067-0.236-0.051-0.091 0.054 0.147 0.106-0.078 0.268-0.75 0.541-0.528 0.214-1.037 0.449-1.131 0.521-0.554 0.424-5.966 2.971-6.116 2.878-0.099-0.061-0.133-0.035-0.075 0.059 0.101 0.163-2.405 1.428-2.838 1.434-0.111 1e-3 -0.165 0.061-0.121 0.132s-0.246 0.273-0.644 0.449c-0.397 0.176-1.415 0.702-2.261 1.168-0.845 0.467-1.639 0.81-1.764 0.762-0.124-0.048-0.275-7e-3 -0.334 0.089-0.067 0.109 7e-3 0.144 0.191 0.091 0.165-0.047-0.209 0.172-0.831 0.486-0.622 0.315-1.239 0.663-1.372 0.773-0.134 0.111-0.36 0.156-0.503 0.101-0.144-0.055-0.221-0.036-0.172 0.043 0.048 0.079-0.379 0.389-0.95 0.69-0.571 0.3-1.541 0.841-2.156 1.202-0.637 0.375-1.203 0.604-1.317 0.533-0.127-0.078-0.157-0.053-0.081 0.069 0.106 0.172-0.093 0.267-0.443 0.212-0.068-0.011-0.125 0.053-0.125 0.141s-0.543 0.428-1.208 0.756-1.321 0.668-1.458 0.755c-0.781 0.494-4.765 2.787-5.986 3.446-0.787 0.424-1.637 0.914-1.888 1.087-0.252 0.174-0.552 0.262-0.667 0.196-0.115-0.067-0.156-0.061-0.09 0.011 0.17 0.189-2 1.462-2.248 1.319-0.113-0.064-0.149-0.056-0.082 0.018 0.068 0.075-0.116 0.312-0.407 0.527-0.399 0.294-0.562 0.339-0.662 0.182-0.096-0.151-0.133-0.133-0.134 0.066-3e-3 0.232-0.444 0.553-0.651 0.473-0.036-0.014-0.111 0.048-0.167 0.137s-0.477 0.368-0.935 0.62-1.157 0.674-1.554 0.938c-0.396 0.264-0.808 0.429-0.916 0.367-0.108-0.061-0.141-0.05-0.073 0.025 0.069 0.075-0.134 0.312-0.449 0.527-0.631 0.428-0.841 0.491-0.659 0.197 0.076-0.123 0.046-0.147-0.084-0.067-0.112 0.069-0.16 0.17-0.106 0.224 0.091 0.091-0.777 0.686-2.011 1.379-0.972 0.546-1.298 0.74-1.473 0.875-0.461 0.358-3.501 2.304-3.642 2.332-0.089 0.018-0.35 0.201-0.58 0.408-0.23 0.206-0.481 0.375-0.557 0.375s-0.638 0.335-1.249 0.745-1.187 0.698-1.28 0.641c-0.093-0.058-0.121-0.027-0.062 0.068 0.138 0.223-1.175 1.094-1.42 0.943-0.105-0.065-0.14-0.041-0.081 0.056 0.106 0.171-0.734 0.782-2.847 2.071-0.618 0.377-1.161 0.735-1.207 0.795-0.187 0.245-2.333 1.688-2.333 1.569 0-0.071-0.117 0.038-0.26 0.241-0.142 0.204-0.367 0.371-0.5 0.371-0.132 0-0.24 0.07-0.24 0.155 0 0.086-0.169 0.209-0.375 0.274-0.206 0.066-0.449 0.209-0.541 0.319-0.417 0.497-3.1 2.261-3.276 2.153-0.112-0.07-0.148-0.047-0.086 0.054 0.059 0.095-0.605 0.686-1.48 1.317-0.873 0.629-2.09 1.539-2.705 2.022-0.615 0.482-1.21 0.842-1.322 0.799-0.113-0.043-0.256 5e-3 -0.319 0.106-0.069 0.112-0.039 0.139 0.078 0.067 0.106-0.066 0.192-0.045 0.192 0.046s-0.15 0.213-0.333 0.271-0.333 0.188-0.333 0.289-0.042 0.141-0.094 0.09c-0.051-0.052-0.263 0.067-0.47 0.264-0.207 0.196-0.591 0.507-0.853 0.69-0.261 0.184-1.032 0.784-1.712 1.334s-1.272 0.977-1.315 0.949c-0.043-0.027-0.229 0.142-0.414 0.377s-0.405 0.384-0.489 0.332-0.153-0.027-0.153 0.056c0 0.219-2.642 2.294-2.85 2.24-0.096-0.025-0.13 0.027-0.075 0.117 0.104 0.167-0.551 0.614-0.796 0.543-0.076-0.021-0.098 0.024-0.05 0.102s-0.49 0.62-1.196 1.204c-0.706 0.585-1.419 1.2-1.585 1.367s-0.384 0.253-0.484 0.191c-0.103-0.064-0.135-0.037-0.075 0.061 0.113 0.183-1.04 1.159-1.277 1.081-0.075-0.025-0.093 0.026-0.04 0.112 0.054 0.087-0.109 0.319-0.362 0.516-0.253 0.196-0.778 0.658-1.165 1.025-0.415 0.393-0.786 0.617-0.901 0.546-0.11-0.068-0.152-0.049-0.095 0.043 0.132 0.213-1.762 2.088-2.041 2.022-0.118-0.028-0.235 0.07-0.26 0.217s-0.41 0.609-0.855 1.026c-0.446 0.417-1.703 1.662-2.795 2.767s-2.06 1.963-2.151 1.906c-0.091-0.056-0.12-0.028-0.064 0.062 0.103 0.168-1.711 2.074-1.911 2.008-0.061-0.02-0.174 0.031-0.25 0.115-0.082 0.089-0.045 0.097 0.091 0.018 0.397-0.23 0.139 0.183-0.617 0.987-0.396 0.42-0.784 0.725-0.863 0.676s-0.198-1e-3 -0.264 0.107c-0.076 0.122-0.049 0.15 0.072 0.076 0.105-0.065 0.192-0.04 0.192 0.057 0 0.098-0.117 0.177-0.26 0.177s-0.22 0.065-0.17 0.144c0.049 0.08-0.056 0.276-0.233 0.436s-1.049 1.18-1.938 2.267c-0.889 1.086-1.691 1.928-1.783 1.871-0.092-0.056-0.118-0.023-0.058 0.074 0.1 0.163-2.274 3.388-2.587 3.514-0.077 0.031-0.105 0.112-0.063 0.18s-0.141 0.361-0.406 0.652c-0.266 0.291-0.448 0.529-0.404 0.529 0.062 0-1.746 2.722-2.386 3.591-0.158 0.215-0.32 0.502-1.126 1.992-0.347 0.642-0.707 1.242-0.8 1.333-0.113 0.112-0.124 0.09-0.035-0.067 0.093-0.162 0.071-0.195-0.07-0.108-0.112 0.069-0.163 0.232-0.113 0.363 0.05 0.13-0.125 0.591-0.39 1.024-0.401 0.658-1.22 2.411-2.042 4.372-0.096 0.229-0.241 0.547-0.322 0.706s-0.147 0.403-0.147 0.541c0 0.139-0.08 0.253-0.177 0.253s-0.136 0.065-0.087 0.145c0.111 0.179-0.627 2.409-0.755 2.281-0.051-0.051-0.08 0.068-0.066 0.265 0.015 0.196-0.115 0.853-0.288 1.458s-0.349 1.288-0.391 1.517c-0.042 0.23-0.125 0.642-0.185 0.917-0.059 0.275-0.124 0.612-0.143 0.75-0.019 0.137-0.096 0.662-0.171 1.167-0.174 1.17-0.178 5.824-6e-3 6.916 0.216 1.373 0.235 1.483 0.328 1.917 0.049 0.229 0.273 1.087 0.498 1.907 0.224 0.82 0.371 1.607 0.326 1.75-0.065 0.209-0.05 0.215 0.081 0.031 0.125-0.174 0.212-0.081 0.368 0.392 0.112 0.34 0.308 0.818 0.435 1.061s0.231 0.536 0.232 0.651c0 0.114 0.057 0.208 0.127 0.208 0.069 0 0.233 0.244 0.364 0.542 0.256 0.58 1.072 1.783 1.96 2.89 0.301 0.375 0.491 0.738 0.423 0.806s-0.02 0.098 0.106 0.068c0.126-0.031 0.267 0.048 0.313 0.176 0.057 0.155 0.014 0.188-0.13 0.099-0.141-0.088-0.173-0.066-0.093 0.063 0.066 0.107 0.185 0.155 0.264 0.106 0.174-0.108 1.602 1.392 1.538 1.616-0.026 0.087 0.027 0.113 0.117 0.058 0.164-0.102 2.045 1.487 1.915 1.618-0.039 0.038 0.025 0.069 0.141 0.069 0.282 0 1.956 1.21 1.956 1.414 0 0.089 0.065 0.121 0.145 0.071 0.08-0.049 0.333 0.078 0.561 0.282 0.229 0.205 0.488 0.386 0.576 0.404s0.776 0.414 1.529 0.881c1.446 0.897 2.351 1.373 4.751 2.499 2.663 1.25 3.496 1.614 5.438 2.375 1.054 0.414 2.066 0.812 2.25 0.885 0.183 0.073 0.389 0.148 0.458 0.168 0.069 0.019 0.144 0.05 0.167 0.069 0.051 0.041 0.388 0.125 1.036 0.259 0.272 0.056 0.591 0.181 0.708 0.279 0.118 0.097 0.214 0.121 0.214 0.053s0.124-0.021 0.276 0.105c0.151 0.125 0.301 0.21 0.333 0.187 0.175-0.126 0.393-0.014 0.292 0.15-0.074 0.12-0.046 0.148 0.075 0.073 0.169-0.104 2.044 0.43 5.607 1.597 0.55 0.18 1.113 0.352 1.251 0.382s0.588 0.151 1 0.269c0.412 0.117 0.787 0.223 0.833 0.234 0.045 0.01 0.233 0.069 0.416 0.13 0.377 0.124 1.229 0.307 1.542 0.33 0.115 8e-3 0.209 0.096 0.211 0.196 1e-3 0.099 0.075 0.068 0.164-0.07 0.134-0.207 0.162-0.193 0.167 0.084 4e-3 0.276 0.032 0.29 0.166 0.083 0.144-0.222 0.162-0.222 0.167 0 4e-3 0.199 0.034 0.205 0.145 0.029 0.114-0.179 0.187-0.173 0.394 0.034 0.14 0.14 0.298 0.211 0.351 0.158 0.052-0.052 0.23-0.037 0.394 0.034 0.165 0.071 0.431 0.113 0.591 0.093 0.16-0.019 0.292 0.049 0.292 0.151 0 0.103 0.075 0.141 0.166 0.084 0.092-0.056 0.168-4e-3 0.17 0.115 1e-3 0.159 0.046 0.15 0.164-0.031 0.117-0.182 0.162-0.191 0.164-0.032 1e-3 0.12 0.073 0.174 0.159 0.121 0.087-0.053 1.081 0.126 2.209 0.4 4.909 1.189 6.415 1.543 6.884 1.619 0.275 0.044 0.907 0.185 1.405 0.311 0.497 0.127 0.966 0.193 1.041 0.146 0.076-0.047 0.138-0.021 0.138 0.058s0.168 0.149 0.375 0.155c0.356 0.011 0.865 0.1 1.791 0.315 0.23 0.053 0.679 0.137 1 0.186 0.321 0.05 0.639 0.176 0.706 0.281 0.091 0.141 0.123 0.14 0.125-3e-3 3e-3 -0.25 0.668-0.081 0.672 0.17 1e-3 0.104 0.075 0.077 0.164-0.061 0.117-0.181 0.162-0.19 0.164-0.031 2e-3 0.119 0.086 0.166 0.188 0.103s0.251-0.011 0.331 0.115c0.1 0.159 0.146 0.167 0.148 0.027 3e-3 -0.23 0.514-0.092 0.708 0.191 0.085 0.124 0.123 0.12 0.125-0.012 2e-3 -0.137 0.179-0.147 0.628-0.036 0.343 0.085 0.775 0.184 0.958 0.219 0.183 0.036 0.521 0.109 0.75 0.163s0.604 0.134 0.833 0.178c0.23 0.044 0.605 0.119 0.834 0.167 0.229 0.047 0.641 0.125 0.916 0.171 1.423 0.241 5.678 1.156 5.75 1.236 0.046 0.051 0.234 0.089 0.417 0.084 0.183-4e-3 0.744 0.083 1.246 0.195 0.501 0.112 0.97 0.168 1.041 0.124s0.13-7e-3 0.13 0.082 0.187 0.141 0.416 0.116c0.23-0.025 0.417 4e-3 0.417 0.065 0 0.06 0.169 0.116 0.375 0.124 0.47 0.017 1.601 0.206 2.042 0.341 0.183 0.056 0.546 0.114 0.805 0.128 0.26 0.015 0.532 0.123 0.605 0.241 0.107 0.172 0.15 0.169 0.223-0.013 0.071-0.178 0.093-0.18 0.104-9e-3 7e-3 0.119 0.096 0.166 0.198 0.103s0.251-0.011 0.331 0.115c0.081 0.128 0.146 0.148 0.148 0.045 1e-3 -0.108 0.177-0.152 0.419-0.106 0.229 0.044 0.417 0.127 0.417 0.185s0.206 0.115 0.458 0.126 0.683 0.076 0.958 0.144c0.275 0.069 0.594 0.129 0.709 0.133 0.114 5e-3 0.208 0.069 0.208 0.142 0 0.074 0.094 0.099 0.208 0.056 0.115-0.042 0.809 0.074 1.542 0.26 0.733 0.185 1.522 0.374 1.752 0.42 0.352 0.069 2.757 0.687 3.915 1.006 0.183 0.05 0.521 0.119 0.75 0.152 0.503 0.074 0.896 0.172 1.666 0.419 0.321 0.103 0.809 0.227 1.084 0.275 0.275 0.049 0.548 0.166 0.606 0.261 0.059 0.094 0.183 0.124 0.277 0.066 0.095-0.059 0.21-0.012 0.256 0.103s0.09 0.129 0.098 0.03c0.012-0.168 1.977 0.361 2.179 0.587 0.046 0.051 0.196 0.106 0.334 0.122 0.941 0.112 3.632 1.068 7.416 2.635 2.048 0.848 6.221 3.309 6.389 3.768 0.031 0.083 0.12 0.151 0.198 0.151 0.23 0 1.247 0.989 1.247 1.212 0 0.113 0.089 0.205 0.198 0.205 0.484 0 2.203 2.536 1.972 2.91-0.059 0.095-0.035 0.173 0.052 0.173 0.263 0 0.388 0.547 0.158 0.692-0.166 0.106-0.168 0.137-5e-3 0.139 0.118 1e-3 0.208 0.212 0.208 0.488 0 0.268-0.094 0.524-0.208 0.571-0.14 0.056-0.145 0.088-0.016 0.097 0.112 7e-3 0.155 0.159 0.102 0.36-0.07 0.268-0.125 0.297-0.24 0.125-0.096-0.144-0.113-0.072-0.049 0.207 0.184 0.798-3.012 4.427-3.587 4.072-0.097-0.06-0.156-0.036-0.131 0.054 0.087 0.31-3.289 2.429-3.649 2.291-0.133-0.051-0.194-0.019-0.137 0.073 0.091 0.148-0.129 0.236-0.46 0.184-0.069-0.011-0.125 0.038-0.125 0.109 0 0.121-0.329 0.3-2.197 1.197-0.428 0.206-0.965 0.386-1.192 0.4-0.227 0.013-0.382 0.073-0.345 0.133s-0.139 0.186-0.391 0.28-1.381 0.552-2.51 1.016c-2.008 0.828-2.533 1.003-2.032 0.679 0.175-0.113 0.186-0.163 0.037-0.164-0.118-2e-3 -0.259 0.114-0.313 0.257-0.055 0.142-0.203 0.22-0.329 0.171-0.125-0.048-0.228-0.022-0.228 0.058 0 0.163-1.012 0.554-1.13 0.436-0.042-0.042-0.176 0.024-0.298 0.146s-0.496 0.274-0.832 0.336c-0.335 0.063-0.807 0.196-1.049 0.296-0.243 0.1-0.516 0.199-0.608 0.22-0.294 0.068-4.298 1.439-5.392 1.847-0.583 0.217-1.126 0.353-1.208 0.303-0.082-0.051-0.15-0.028-0.15 0.051 0 0.195-2.291 0.922-2.5 0.793-0.091-0.057-0.166-0.016-0.166 0.091s-0.113 0.151-0.25 0.098c-0.138-0.052-0.25-0.023-0.25 0.066s-0.057 0.152-0.125 0.142c-0.069-0.011-0.163-6e-3 -0.209 0.012s-0.196 0.056-0.333 0.085c-0.138 0.028-0.98 0.29-1.873 0.581-0.893 0.292-1.711 0.476-1.818 0.41-0.115-0.072-0.149-0.048-0.083 0.059 0.066 0.106-0.107 0.226-0.429 0.297-0.296 0.065-1.497 0.439-2.669 0.832-1.171 0.392-2.087 0.645-2.035 0.562 0.051-0.084-0.026-0.152-0.172-0.152s-0.31 0.117-0.364 0.26c-0.055 0.142-0.203 0.22-0.329 0.171-0.125-0.048-0.228-0.023-0.228 0.056 0 0.168-0.754 0.408-1.292 0.41-0.206 0-0.375 0.062-0.375 0.135 0 0.074-0.056 0.126-0.125 0.115-0.068-0.011-0.181-2e-3 -0.25 0.021-0.068 0.022-0.181 0.056-0.25 0.076-0.068 0.019-0.237 0.079-0.375 0.133-0.381 0.149-1.412 0.458-1.767 0.53-0.174 0.034-1.789 0.558-3.588 1.164-1.969 0.662-3.39 1.055-3.566 0.987-0.184-0.07-0.369-9e-3 -0.495 0.164-0.199 0.271-1.584 0.855-1.584 0.667 0-0.053-0.112-3e-3 -0.25 0.111-0.137 0.114-0.25 0.164-0.25 0.111s-0.3 0.01-0.666 0.139c-0.367 0.129-0.667 0.192-0.667 0.139s-0.113-3e-3 -0.25 0.111c-0.138 0.114-0.25 0.152-0.25 0.083 0-0.068-0.1-0.041-0.221 0.06-0.122 0.101-0.366 0.211-0.542 0.245s-0.433 0.108-0.57 0.164c-0.138 0.056-1.075 0.367-2.084 0.69-1.008 0.324-1.983 0.665-2.166 0.757-0.669 0.338-2.796 0.993-2.938 0.905-0.08-0.05-0.146-3e-3 -0.146 0.104s-0.112 0.151-0.25 0.098c-0.137-0.052-0.25-0.032-0.25 0.046 0 0.079-0.168 0.197-0.375 0.264-0.51 0.167-0.611 0.202-0.708 0.251-0.046 0.023-0.14 0.057-0.208 0.077-0.069 0.019-0.238 0.084-0.375 0.143-0.138 0.06-0.4 0.136-0.584 0.169-0.183 0.033-0.445 0.108-0.583 0.166-0.776 0.328-1.72 0.598-1.837 0.526-0.074-0.046-0.16-0.015-0.19 0.068-0.045 0.12-3.702 1.619-4.806 1.969-0.223 0.071-0.223 0.06 0-0.1 0.157-0.113 0.175-0.181 0.05-0.182-0.11-2e-3 -0.26 0.103-0.334 0.233-0.136 0.243-1.883 1.007-1.883 0.824 0-0.055-0.094-0.029-0.208 0.06-0.115 0.088-1.034 0.478-2.042 0.866s-1.968 0.778-2.132 0.866c-0.164 0.087-0.364 0.119-0.444 0.069-0.08-0.049-0.171-0.024-0.201 0.056-0.096 0.251-2.469 1.211-2.685 1.087-0.113-0.064-0.146-0.053-0.075 0.025 0.152 0.167-1.02 0.78-1.235 0.647-0.08-0.049-0.145-0.01-0.145 0.087 0 0.098-0.093 0.177-0.208 0.177-0.268 0-8.892 3.984-10.499 4.851-0.344 0.185-0.712 0.282-0.818 0.217-0.106-0.066-0.149-0.049-0.096 0.037 0.105 0.17-3.153 1.993-3.497 1.955-0.116-0.012-0.174 0.038-0.128 0.113 0.046 0.074-0.273 0.309-0.71 0.522-0.437 0.214-0.831 0.43-0.877 0.48-0.046 0.051-0.383 0.231-0.75 0.401s-0.94 0.481-1.273 0.691c-0.334 0.209-0.653 0.335-0.709 0.279s-0.101-0.022-0.101 0.074c0 0.242-2.155 1.574-2.351 1.453-0.086-0.054-0.137-0.011-0.112 0.096 0.025 0.106-0.179 0.319-0.454 0.472-0.74 0.411-3.391 2.168-4.229 2.802-0.4 0.303-0.806 0.504-0.9 0.445-0.108-0.066-0.121-0.023-0.036 0.115 0.099 0.16 0.061 0.191-0.139 0.115-0.17-0.065-0.26-0.028-0.236 0.096 0.022 0.112-0.054 0.184-0.168 0.161-0.115-0.023-0.209 0.034-0.209 0.127 0 0.228-3.028 2.429-3.245 2.359-0.094-0.03-0.118-2e-3 -0.053 0.063s-0.609 0.727-1.499 1.472c-0.889 0.745-2.657 2.366-3.93 3.604-1.272 1.237-2.379 2.231-2.459 2.208-0.081-0.023-0.128 0.023-0.105 0.103 0.023 0.079-0.484 0.766-1.125 1.526-0.642 0.76-1.489 1.802-1.883 2.314-0.394 0.513-0.793 0.912-0.887 0.887-0.095-0.026-0.131 0.02-0.081 0.101s-0.376 0.814-0.946 1.629-1.187 1.771-1.37 2.125-0.427 0.681-0.541 0.726-0.166 0.15-0.115 0.232 8e-3 0.149-0.094 0.149-0.151 0.058-0.107 0.128c0.121 0.196-0.653 1.388-0.809 1.247-0.076-0.069-0.088-0.038-0.027 0.067 0.06 0.106-0.384 1.206-0.986 2.445-0.603 1.239-1.112 2.352-1.13 2.474-0.019 0.122-0.079 0.297-0.134 0.389-0.056 0.092-0.153 0.41-0.217 0.708s-0.183 0.542-0.265 0.542c-0.081 0-0.105 0.112-0.052 0.25 0.053 0.137 9e-3 0.25-0.098 0.25s-0.157 0.06-0.112 0.134c0.114 0.185-0.406 2.199-0.568 2.199-0.072 0-0.091 0.15-0.043 0.334 0.05 0.193 5e-3 0.333-0.109 0.333-0.108 0-0.144 0.083-0.081 0.185s0.011 0.251-0.116 0.331c-0.18 0.114-0.182 0.146-0.011 0.148 0.12 2e-3 0.172 0.077 0.115 0.169-0.111 0.18-0.206 0.59-0.346 1.5-0.05 0.321-0.122 0.696-0.161 0.834-0.571 2.018-0.756 7.482-0.345 10.173 0.036 0.233 0.225 0.992 0.42 1.687 0.195 0.696 0.303 1.399 0.24 1.563-0.077 0.201-0.053 0.26 0.075 0.181 0.211-0.131 0.76 0.998 0.606 1.247-0.051 0.082-0.014 0.149 0.081 0.149 0.096 0 0.221 0.187 0.278 0.416 0.058 0.23 0.163 0.417 0.234 0.417s0.175 0.131 0.232 0.292c0.057 0.16 0.15 0.396 0.208 0.523 0.073 0.162 0.035 0.192-0.125 0.1-0.127-0.072-4e-3 0.086 0.273 0.352s0.774 0.82 1.104 1.233c0.897 1.122 2.622 2.755 3.952 3.743 0.649 0.483 1.129 0.93 1.066 0.993s0.014 0.065 0.171 5e-3c0.201-0.077 0.287-0.026 0.287 0.168 0 0.152 0.078 0.229 0.174 0.17s0.276-0.023 0.402 0.081c0.125 0.104 0.643 0.402 1.151 0.661 0.508 0.26 0.89 0.519 0.848 0.576-0.041 0.057-0.031 0.072 0.022 0.034 0.098-0.07 0.702 0.157 2.07 0.777 1.101 0.499 4.337 1.646 4.916 1.742 0.275 0.046 0.538 0.14 0.584 0.209 0.045 0.07 0.214 0.107 0.374 0.082 0.16-0.024 0.333 0.024 0.385 0.107 0.051 0.084 0.233 0.152 0.403 0.152 0.171 0 0.348 0.094 0.394 0.208 0.057 0.141 0.088 0.146 0.097 0.015 0.013-0.181 0.374-0.128 2.013 0.296 0.138 0.035 0.305 0.139 0.373 0.231 0.077 0.106 0.123 0.096 0.125-0.026 1e-3 -0.11 0.145-0.156 0.336-0.106 0.183 0.048 0.333 0.163 0.333 0.255 0 0.095 0.109 0.078 0.25-0.04 0.137-0.114 0.25-0.142 0.25-0.061 0 0.08 0.206 0.155 0.458 0.167 0.924 0.043 1.792 0.227 1.847 0.392 0.031 0.093 0.129 0.169 0.219 0.169 0.089 0 0.116-0.075 0.059-0.167-0.056-0.091-0.023-0.166 0.074-0.166s0.176 0.056 0.176 0.125c0 0.068 0.282 0.132 0.625 0.141 0.344 8e-3 1.038 0.068 1.542 0.132s1.179 0.149 1.5 0.189c6.635 0.836 19.285 0.835 28.333-2e-3 0.321-0.03 1.184-0.109 1.917-0.177s1.708-0.131 2.167-0.141c0.458-0.01 0.889-0.092 0.958-0.184 0.078-0.105 0.187-0.074 0.292 0.083 0.141 0.212 0.189 0.215 0.316 0.018 0.09-0.14 0.268-0.188 0.445-0.12 0.171 0.066 0.353 0.024 0.434-0.1 0.109-0.17 0.172-0.163 0.305 0.036 0.141 0.211 0.189 0.214 0.316 0.017 0.083-0.128 0.268-0.187 0.412-0.132 0.143 0.055 0.308 0.025 0.365-0.067 0.067-0.109 0.185-0.1 0.338 0.027 0.181 0.15 0.235 0.148 0.235-0.01 0-0.133 0.141-0.17 0.403-0.104 0.249 0.063 0.435 0.022 0.488-0.107 0.063-0.156 0.128-0.146 0.263 0.042 0.143 0.199 0.208 0.206 0.318 0.036 0.076-0.117 0.263-0.166 0.417-0.107 0.167 0.064 0.278 0.025 0.278-0.098 0-0.157 0.054-0.16 0.235-0.01 0.172 0.143 0.266 0.145 0.35 9e-3 0.064-0.102 0.218-0.146 0.343-0.098s0.277 7e-3 0.337-0.09c0.073-0.118 0.159-0.102 0.256 0.049 0.121 0.187 0.174 0.183 0.312-0.024 0.14-0.209 0.191-0.212 0.314-0.022 0.119 0.185 0.182 0.169 0.33-0.083 0.159-0.27 0.206-0.278 0.351-0.062 0.092 0.138 0.168 0.165 0.169 0.062 2e-3 -0.109 0.232-0.174 0.545-0.153 0.298 0.019 0.616-6e-3 0.708-0.057 0.092-0.05 0.354-0.096 0.583-0.102 0.23-5e-3 0.492-0.049 0.584-0.098 0.091-0.049 0.373-0.08 0.625-0.071 0.252 0.01 0.458-0.037 0.458-0.104 0-0.068 0.131-0.12 0.292-0.117 0.331 7e-3 1.915-0.162 2.541-0.271 0.384-0.066 0.657-0.112 1.959-0.327 0.252-0.041 0.87-0.151 1.375-0.244 0.504-0.092 1.216-0.217 1.583-0.276 1.085-0.176 1.289-0.212 2.25-0.393 0.504-0.095 1.173-0.216 1.486-0.268s0.616-0.124 0.672-0.159c0.057-0.035 0.438-0.106 0.847-0.159 0.41-0.053 1.026-0.163 1.37-0.245 0.445-0.106 0.626-0.094 0.628 0.042 1e-3 0.132 0.04 0.136 0.125 0.012 0.194-0.284 0.705-0.422 0.708-0.191 2e-3 0.14 0.048 0.131 0.148-0.027 0.08-0.126 0.229-0.178 0.331-0.115s0.186 0.016 0.188-0.104c1e-3 -0.158 0.046-0.15 0.164 0.032 0.124 0.193 0.162 0.198 0.164 0.024 1e-3 -0.132 0.106-0.186 0.252-0.13 0.138 0.052 0.25 0.029 0.25-0.051 0-0.081 0.188-0.126 0.417-0.101s0.417-3e-3 0.417-0.063c0-0.093 0.523-0.183 1.291-0.224 0.115-6e-3 0.21-0.092 0.211-0.191 2e-3 -0.099 0.075-0.068 0.164 0.069 0.125 0.193 0.162 0.199 0.164 0.024 2e-3 -0.132 0.107-0.186 0.253-0.13 0.137 0.053 0.251 4e-3 0.253-0.107 1e-3 -0.129 0.061-0.111 0.164 0.047 0.089 0.137 0.162 0.168 0.164 0.069 1e-3 -0.099 0.096-0.184 0.211-0.189 0.269-0.012 1.176-0.174 2.125-0.38 0.412-0.089 0.937-0.198 1.166-0.242 0.23-0.044 1.204-0.266 2.167-0.493 0.962-0.228 1.938-0.449 2.167-0.492 0.229-0.042 0.529-0.119 0.666-0.17 0.138-0.052 0.438-0.131 0.667-0.177 0.229-0.045 0.717-0.156 1.083-0.245 0.367-0.089 0.855-0.2 1.084-0.247s1.107-0.266 1.952-0.486c1.053-0.274 1.56-0.342 1.612-0.216 0.047 0.113 0.081 0.1 0.089-0.034 7e-3 -0.12 0.088-0.172 0.18-0.115s0.168 5e-3 0.169-0.115c2e-3 -0.159 0.047-0.15 0.164 0.032 0.118 0.181 0.163 0.19 0.164 0.031 2e-3 -0.119 0.078-0.171 0.17-0.115 0.091 0.057 0.166 0.011 0.166-0.101s0.04-0.164 0.089-0.116c0.048 0.049 0.569-0.04 1.157-0.198 0.786-0.211 1.122-0.238 1.269-0.103 0.149 0.138 0.171 0.131 0.083-0.023-0.115-0.205 8e-3 -0.256 0.611-0.253 0.16 0 0.291-0.077 0.291-0.172s0.042-0.131 0.093-0.08 0.52-0.019 1.042-0.155c0.522-0.137 1.061-0.274 1.199-0.305 0.137-0.03 1.187-0.313 2.333-0.627 1.146-0.315 2.308-0.631 2.583-0.704 0.275-0.072 0.575-0.153 0.667-0.18 2.175-0.635 3.206-0.886 3.375-0.822 0.115 0.043 0.208-6e-3 0.208-0.11s0.05-0.14 0.11-0.08 0.192 0.043 0.292-0.04c0.1-0.082 0.455-0.192 0.788-0.244 0.554-0.087 2.464-0.647 8.31-2.434 1.146-0.35 2.29-0.717 2.542-0.815 0.348-0.136 0.459-0.13 0.461 0.025 2e-3 0.13 0.061 0.114 0.164-0.046 0.089-0.138 0.163-0.185 0.164-0.105 2e-3 0.08 0.115 0.052 0.253-0.062 0.137-0.114 0.25-0.159 0.25-0.1 0 0.06 0.168 2e-3 0.375-0.127 0.206-0.13 0.506-0.213 0.666-0.186 0.161 0.028 0.292-0.026 0.292-0.119 0-0.094 0.112-0.127 0.25-0.074 0.137 0.053 0.25 0.026 0.25-0.06s0.112-0.113 0.25-0.061c0.137 0.053 0.25 0.029 0.25-0.053s0.134-0.159 0.297-0.171 2.582-0.788 5.375-1.723 5.17-1.714 5.282-1.73c0.111-0.017 0.255-0.083 0.319-0.146 0.064-0.064 0.249-0.116 0.411-0.116s0.505-0.087 0.763-0.192c0.259-0.106 0.598-0.218 0.756-0.249 0.309-0.06 4.078-1.424 6.178-2.236 0.714-0.276 1.371-0.457 1.459-0.403 0.088 0.055 0.16 0.012 0.16-0.095s0.108-0.153 0.239-0.103c0.132 0.051 0.264 0.02 0.293-0.069 0.03-0.088 0.276-0.201 0.547-0.25 0.272-0.049 0.587-0.167 0.7-0.261 0.114-0.094 0.285-0.123 0.38-0.064 0.096 0.06 0.174 0.029 0.174-0.068 0-0.098 0.108-0.177 0.239-0.177 0.132 0 0.451-0.087 0.709-0.192 0.258-0.106 0.544-0.209 0.636-0.23 0.091-0.02 0.804-0.282 1.583-0.581s2.077-0.798 2.884-1.108 1.557-0.513 1.667-0.45c0.109 0.063 0.143 0.053 0.075-0.023-0.115-0.127 1.086-0.771 1.343-0.719 0.116 0.023 0.446-0.087 1.198-0.401 0.229-0.096 0.585-0.239 0.791-0.318 0.42-0.162 0.279-0.102 3.445-1.465 1.275-0.549 2.393-0.953 2.484-0.897 0.092 0.057 0.112 0.017 0.046-0.09-0.111-0.179 0.121-0.259 0.692-0.237 0.115 4e-3 0.208-0.063 0.208-0.149 0-0.087 0.282-0.269 0.625-0.406 0.344-0.137 0.794-0.321 1-0.408 0.207-0.088 0.544-0.23 0.75-0.316 0.207-0.086 1.275-0.584 2.375-1.108s2.094-0.954 2.209-0.955c0.114-1e-3 0.208-0.053 0.208-0.115 0-0.19 0.847-0.51 1.038-0.392 0.099 0.061 0.133 0.035 0.075-0.059-0.06-0.097 0.624-0.506 1.599-0.955 1.484-0.683 2.898-1.42 8.121-4.229 1.643-0.884 3.555-1.968 5.323-3.021 0.877-0.521 1.706-1 1.844-1.064 0.137-0.063 0.475-0.264 0.75-0.445 0.275-0.182 0.612-0.381 0.75-0.444 0.137-0.063 1.244-0.776 2.459-1.585 1.216-0.809 2.316-1.471 2.445-1.471s0.26-0.058 0.29-0.129c0.127-0.295 4.013-2.866 4.178-2.764 0.103 0.064 0.132 0.033 0.067-0.071-0.066-0.107 0.354-0.495 1.016-0.938 1.572-1.053 1.801-1.219 3.183-2.307 0.672-0.529 1.302-0.912 1.401-0.851 0.098 0.061 0.133 0.037 0.077-0.055-0.092-0.148 0.36-0.565 1.051-0.97 0.222-0.13 0.222-0.11 0 0.178-0.232 0.299-0.229 0.306 0.041 0.095 0.161-0.126 0.292-0.317 0.292-0.424 0-0.108 0.392-0.492 0.87-0.855 0.479-0.363 1.454-1.172 2.167-1.8 0.713-0.627 1.296-1.087 1.296-1.023 0 0.065 0.132-0.032 0.292-0.214s1.529-1.456 3.042-2.831c2.935-2.669 6.194-5.976 8.5-8.629 0.779-0.896 1.567-1.791 1.75-1.987 0.184-0.197 0.47-0.566 0.636-0.819 0.166-0.254 0.405-0.588 0.531-0.742 0.441-0.542 2.335-3.001 2.571-3.339 0.132-0.187 0.312-0.296 0.401-0.241 0.093 0.058 0.108 0.013 0.037-0.102-0.069-0.112-0.015-0.33 0.12-0.485 0.136-0.154 0.672-0.974 1.193-1.822s1.03-1.542 1.132-1.542c0.101 0 0.135-0.049 0.075-0.109s0.03-0.341 0.2-0.625c0.884-1.476 1.761-3.035 1.79-3.183 0.019-0.091 0.444-1.029 0.946-2.083 1.768-3.711 2.878-6.518 2.663-6.733-0.056-0.055-5e-3 -0.1 0.111-0.1 0.121 0 0.171-0.109 0.117-0.25-0.053-0.138-0.024-0.25 0.065-0.25s0.153-0.057 0.142-0.125c-0.011-0.069-5e-3 -0.163 0.013-0.209 0.074-0.191 0.193-0.782 0.246-1.228 0.031-0.264 0.149-0.536 0.261-0.605 0.16-0.099 0.159-0.141-4e-3 -0.196-0.153-0.051-0.136-0.14 0.063-0.34 0.176-0.176 0.205-0.292 0.084-0.333-0.12-0.04-0.086-0.165 0.096-0.347 0.157-0.156 0.215-0.284 0.129-0.284-0.085 0-0.12-0.187-0.076-0.417 0.044-0.229 0.136-0.416 0.204-0.416s0.088-0.188 0.044-0.417c-0.043-0.229-8e-3 -0.417 0.079-0.417s0.146-0.166 0.131-0.369 0.038-0.71 0.117-1.125c0.079-0.416 0.186-1.093 0.238-1.506 0.052-0.412 0.125-0.975 0.163-1.25 0.148-1.077 0.198-6.777 0.064-7.29-0.078-0.299-0.176-0.806-0.216-1.126-0.041-0.321-0.162-0.904-0.27-1.296-0.107-0.392-0.153-0.779-0.103-0.861 0.051-0.081 0.023-0.173-0.061-0.204-0.141-0.051-0.806-1.723-0.918-2.306-0.085-0.441-1.163-2.538-2.099-4.083-0.5-0.825-0.889-1.613-0.864-1.75 0.035-0.188 0.01-0.198-0.097-0.04-0.101 0.148-0.435-0.2-1.122-1.167-0.539-0.757-2.291-2.689-3.895-4.293-1.603-1.604-2.9-2.979-2.88-3.054 0.019-0.076-0.039-0.092-0.129-0.037-0.089 0.055-0.298-9e-3 -0.462-0.143-0.165-0.134-0.544-0.443-0.842-0.687s-0.493-0.523-0.432-0.62c0.06-0.098 0.033-0.13-0.061-0.072-0.093 0.057-0.612-0.25-1.152-0.683s-1.469-1.121-2.064-1.528c-0.595-0.406-1.345-0.92-1.665-1.141-0.321-0.22-0.569-0.456-0.551-0.524 0.018-0.067-0.057-0.126-0.167-0.13-0.109-4e-3 -0.949-0.498-1.866-1.097-2.42-1.582-2.754-1.784-2.946-1.784-0.095 0-0.131-0.109-0.08-0.242 0.058-0.151 0.013-0.211-0.122-0.159-0.118 0.045-1.104-0.454-2.191-1.11-1.088-0.656-2.542-1.488-3.231-1.849s-1.31-0.746-1.38-0.857c-0.071-0.11-0.129-0.139-0.13-0.064-2e-3 0.074-0.3-0.032-0.663-0.236s-0.614-0.445-0.557-0.536c0.058-0.094 0.017-0.113-0.095-0.044-0.11 0.068-0.981-0.299-1.984-0.837-0.983-0.527-2.387-1.253-3.121-1.613-0.733-0.36-1.388-0.741-1.455-0.846-0.068-0.105-0.124-0.135-0.125-0.068-2e-3 0.068-0.397-0.054-0.878-0.271-0.857-0.385-5.593-2.652-6.164-2.951-0.16-0.083-0.389-0.151-0.511-0.151-0.121 0-0.377-0.145-0.567-0.323-0.191-0.178-0.379-0.292-0.417-0.253-0.069 0.069-5.97-2.534-6.825-3.01-0.243-0.136-0.562-0.247-0.708-0.247-0.147 0-0.266-0.073-0.266-0.161 0-0.089-0.113-0.119-0.25-0.066-0.138 0.053-0.25 0.013-0.25-0.089 0-0.101-0.103-0.184-0.228-0.184-0.374 0-1.939-0.699-1.939-0.865 0-0.085-0.069-0.112-0.152-0.061-0.084 0.052-0.74-0.177-1.458-0.508-0.717-0.332-1.68-0.752-2.139-0.935-0.459-0.182-1.022-0.411-1.251-0.509s-0.454-0.186-0.5-0.197-0.233-0.101-0.417-0.201c-0.183-0.099-0.633-0.275-1-0.392-0.366-0.116-0.966-0.343-1.333-0.504-0.367-0.16-0.803-0.337-0.969-0.392s-0.256-0.175-0.2-0.266c0.058-0.093-2e-3 -0.126-0.134-0.075-0.264 0.101-3.831-1.364-3.92-1.609-0.03-0.085-0.127-0.11-0.215-0.056s-0.25 0.032-0.361-0.049c-0.111-0.082-0.726-0.324-1.368-0.54-0.641-0.215-1.288-0.495-1.437-0.623-0.149-0.127-0.337-0.217-0.417-0.198-0.36 0.082-2.137-0.794-1.862-0.918 0.119-0.055 0.06-0.061-0.132-0.014-0.191 0.046-0.791-0.111-1.333-0.349-0.542-0.239-1.248-0.547-1.569-0.685s-0.883-0.386-1.25-0.551c-0.366-0.165-0.957-0.402-1.312-0.526-0.356-0.124-0.685-0.326-0.732-0.449-0.051-0.134-0.126-0.156-0.188-0.056-0.108 0.174-1.555-0.396-1.653-0.651-0.029-0.074-0.151-0.098-0.271-0.052-0.119 0.046-0.331-0.03-0.469-0.168-0.138-0.139-0.288-0.216-0.332-0.171-0.044 0.044-0.634-0.175-1.311-0.486-1.234-0.566-5.293-2.33-6.398-2.78-0.184-0.075-0.917-0.404-1.629-0.732s-1.892-0.869-2.621-1.202c-0.756-0.345-1.281-0.68-1.221-0.777 0.059-0.096 0.024-0.121-0.08-0.056-0.102 0.063-0.32 0.043-0.484-0.044s-0.824-0.408-1.465-0.714c-0.642-0.306-1.192-0.612-1.223-0.682-0.031-0.069-0.124-0.083-0.208-0.032-0.084 0.052-0.153 0.015-0.153-0.082s-0.056-0.159-0.125-0.137c-0.259 0.082-1.199-0.419-1.097-0.584 0.062-0.1 0.027-0.124-0.082-0.057-0.26 0.161-3.394-1.546-3.254-1.772 0.064-0.103 0.031-0.129-0.077-0.062-0.196 0.121-1.942-0.771-2.58-1.317-0.202-0.174-0.388-0.299-0.411-0.278-0.318 0.273-6.482-4.159-6.268-4.506 0.068-0.11 0.035-0.134-0.085-0.059-0.262 0.162-2.56-2.061-2.444-2.364 0.047-0.123 0.012-0.179-0.078-0.123-0.19 0.118-0.938-0.676-1.1-1.167-0.061-0.184-0.194-0.387-0.296-0.453-0.102-0.065-0.189-0.177-0.194-0.25-4e-3 -0.072-0.162-0.431-0.352-0.797-1.233-2.383-0.923-5.87 0.728-8.211 0.164-0.232 0.436-0.649 0.603-0.926 0.873-1.445 4.385-5.333 4.67-5.17 0.106 0.061 0.137 0.049 0.068-0.027-0.134-0.148 0.536-0.692 0.762-0.619 0.075 0.024 0.094-0.026 0.04-0.112-0.084-0.137 1.658-1.694 3.411-3.049 2.413-1.866 3.044-2.313 3.329-2.356 0.178-0.027 0.382-0.113 0.453-0.192 0.071-0.078 0.017-0.087-0.121-0.019-0.554 0.271 1.409-1.148 3.417-2.47 1.452-0.956 1.83-1.174 1.963-1.135 0.071 0.021 0.173-0.074 0.226-0.213 0.053-0.138 0.165-0.251 0.248-0.251s0.544-0.252 1.024-0.56c0.48-0.307 1.298-0.832 1.817-1.166 0.52-0.334 1.045-0.582 1.167-0.552 0.122 0.031 0.162 0.024 0.09-0.016-0.151-0.082 0.896-0.768 2.132-1.398 0.458-0.234 1.695-0.93 2.75-1.546 1.054-0.617 2.042-1.131 2.196-1.143 0.155-0.012 0.253-0.067 0.219-0.122s0.777-0.535 1.803-1.067c1.026-0.533 2.669-1.415 3.653-1.962 1.056-0.587 1.874-0.943 2-0.871 0.116 0.068 0.155 0.06 0.085-0.017-0.108-0.119 7.079-3.864 7.604-3.963 0.1-0.019 0.283-0.128 0.407-0.244 0.125-0.115 0.289-0.171 0.365-0.124 0.077 0.047 0.164 0.019 0.195-0.062 0.093-0.247 7.667-3.856 7.852-3.742 0.095 0.058 0.126 0.031 0.069-0.061-0.057-0.091 0.288-0.336 0.766-0.542 0.478-0.207 1.126-0.5 1.439-0.651 0.314-0.151 0.614-0.281 0.667-0.289s1.663-0.78 3.578-1.717 3.583-1.664 3.708-1.616 0.227 0.012 0.227-0.08c0-0.093 0.319-0.306 0.708-0.475 0.39-0.168 1.67-0.767 2.845-1.33s2.218-0.973 2.317-0.911c0.1 0.061 0.136 0.037 0.08-0.053-0.08-0.129 2.09-1.258 2.532-1.317 0.154-0.021 1.343-0.571 4.101-1.899 2.203-1.06 3.533-1.678 4.667-2.167 0.496-0.214 2.441-1.112 4.399-2.031 0.953-0.447 1.771-0.775 1.817-0.729 0.047 0.046 0.168-0.031 0.271-0.171 0.102-0.14 0.353-0.267 0.558-0.283 0.204-0.015 0.372-0.082 0.372-0.148s0.168-0.172 0.375-0.237c0.337-0.106 1.44-0.621 5.937-2.773 0.768-0.367 1.491-0.682 1.608-0.699s0.314-0.108 0.438-0.201c0.487-0.368 3.016-1.393 3.183-1.29 0.097 0.06 0.132 0.037 0.077-0.052-0.055-0.088 1.078-0.732 2.516-1.431 4.342-2.108 5.195-2.481 5.393-2.358 0.105 0.064 0.146 0.045 0.091-0.044-0.097-0.158 3.657-2.116 3.946-2.058 0.082 0.016 0.194-0.043 0.25-0.132 0.056-0.09 1.377-0.796 2.936-1.571 4.04-2.01 9.043-4.587 11.083-5.711 0.962-0.53 2.462-1.34 3.333-1.799 0.871-0.46 2.687-1.494 4.036-2.298s2.605-1.51 2.792-1.57c0.186-0.059 0.339-0.177 0.339-0.263 0-0.085 0.094-0.155 0.208-0.156 0.206-1e-3 1.594-0.86 4.213-2.607 0.736-0.49 1.43-0.892 1.542-0.892s0.204-0.075 0.204-0.167c0-0.091 0.112-0.166 0.25-0.166 0.137 0 0.25-0.075 0.25-0.167s0.079-0.167 0.176-0.167 0.123 0.087 0.058 0.193c-0.075 0.12-0.046 0.147 0.076 0.072 0.107-0.067 0.156-0.184 0.108-0.262-0.048-0.077 0.195-0.314 0.539-0.525s0.701-0.443 0.793-0.516c1.038-0.827 3.25-2.441 3.25-2.372 0 0.049 0.168-0.064 0.375-0.251 1.464-1.325 3.176-2.66 3.308-2.578 0.087 0.054 0.138 0.029 0.112-0.054-0.057-0.191 3.905-4.14 4.092-4.078 0.075 0.026 0.094-0.024 0.041-0.109-0.052-0.085 0.228-0.556 0.624-1.046 0.835-1.034 1.859-2.505 1.862-2.674 1e-3 -0.064 0.096-0.21 0.211-0.325 0.114-0.114 0.208-0.299 0.208-0.411 0-0.331 0.671-1.797 0.886-1.933 0.146-0.093 0.141-0.126-0.021-0.128-0.12-2e-3 -0.171-0.079-0.113-0.172 0.232-0.375 0.307-1.168 0.276-2.914-0.044-2.45-0.085-2.917-0.256-2.917-0.079 0-0.109-0.185-0.066-0.411 0.044-0.225 0.013-0.432-0.067-0.459s-0.163-0.292-0.184-0.589-0.086-0.54-0.145-0.54c-0.059-1e-3 -0.206-0.338-0.328-0.751-0.122-0.412-0.275-0.75-0.34-0.75-0.066 0-0.171-0.168-0.233-0.375-0.421-1.391-4.493-5.791-5.36-5.791-0.084 0-0.334-0.169-0.555-0.375-0.222-0.207-0.442-0.355-0.49-0.33-0.226 0.116-1.645-0.71-1.455-0.847 0.135-0.098 0.106-0.116-0.087-0.054-0.276 0.089-0.743-0.066-2.245-0.745-0.384-0.174-0.777-0.316-0.872-0.316s-0.831-0.193-1.634-0.429c-0.804-0.236-1.611-0.462-1.794-0.502-0.922-0.201-1.371-0.28-1.756-0.307-0.232-0.017-0.494-0.069-0.583-0.115s-0.349-0.07-0.578-0.052-0.473-0.053-0.542-0.156c-0.09-0.136-0.166-0.125-0.27 0.037-0.098 0.151-0.183 0.167-0.256 0.049-0.06-0.097-0.227-0.132-0.371-0.077s-0.329-4e-3 -0.411-0.132c-0.127-0.197-0.176-0.194-0.317 0.017-0.134 0.202-0.194 0.208-0.307 0.032-0.092-0.141-0.296-0.179-0.583-0.107-0.28 0.071-0.443 0.043-0.443-0.073 0-0.102-0.113-0.185-0.25-0.185-0.138 0-0.25 0.075-0.25 0.167 0 0.091-0.113 0.166-0.25 0.166-0.138 0-0.25-0.079-0.25-0.177 0-0.114-0.258-0.138-0.73-0.067-0.464 0.07-0.772 0.043-0.843-0.073-0.142-0.229-0.872-0.24-1.01-0.016-0.061 0.099-1.085 0.167-2.51 0.167-1.494 0-2.407-0.064-2.407-0.167 0-0.092-0.263-0.167-0.583-0.167-0.325 0-0.584 0.084-0.584 0.19" fill="#fcfcfc"/>
<path d="m314.88 28.948c0.16 0.042 0.423 0.042 0.583 0 0.161-0.042 0.029-0.076-0.291-0.076-0.321 0-0.452 0.034-0.292 0.076m23.792 3.37c0.556 0.315 1.118 0.394 0.759 0.107-0.177-0.142-0.477-0.256-0.666-0.253-0.274 4e-3 -0.293 0.033-0.093 0.146m5 3.323c0 0.077 0.15 0.276 0.333 0.442s0.333 0.253 0.333 0.193-0.15-0.259-0.333-0.443c-0.183-0.183-0.333-0.27-0.333-0.192m0.978 0.986c0.087 0.161 0.328 0.443 0.537 0.625 0.311 0.271 0.295 0.218-0.088-0.294-0.494-0.661-0.711-0.821-0.449-0.331m2.715 14.13c-0.279 0.613-0.226 0.744 0.076 0.187 0.141-0.261 0.226-0.505 0.187-0.543-0.038-0.038-0.156 0.122-0.263 0.356m-126.69 3.993c-0.229 0.131-0.342 0.238-0.25 0.238 0.091 0 0.354-0.107 0.583-0.238s0.342-0.238 0.25-0.238-0.354 0.107-0.583 0.238m121.41 3.292l-0.827 0.875 0.875-0.827c0.813-0.769 0.951-0.923 0.827-0.923-0.026 0-0.42 0.393-0.875 0.875m-137.08 3.458c-0.321 0.176-0.508 0.319-0.417 0.319 0.092 0 0.429-0.143 0.75-0.319s0.509-0.319 0.417-0.319-0.429 0.143-0.75 0.319m-11.875 5.594c-0.619 0.317-1.125 0.615-1.125 0.66 0 0.075 2.317-1.035 2.486-1.19 0.228-0.21-0.387 0.03-1.361 0.53m136.35 0.567c-0.512 0.427-0.188 0.432 0.356 6e-3 0.23-0.18 0.332-0.328 0.227-0.33-0.104-2e-3 -0.367 0.144-0.583 0.324m-1.834 1.182c-0.372 0.324-0.374 0.333-0.027 0.166 0.201-0.098 0.412-0.252 0.468-0.343 0.164-0.265-0.016-0.193-0.441 0.177m-139.18 0.419c-0.646 0.351-0.573 0.472 0.084 0.138 0.628-0.32 0.739-0.403 0.527-0.393-0.084 3e-3 -0.359 0.118-0.611 0.255m-2.833 1.498c-0.802 0.409-1.458 0.781-1.458 0.827s0.675-0.256 1.5-0.67c0.825-0.415 1.5-0.79 1.5-0.835 0-0.113 0.078-0.147-1.542 0.678m-3.458 1.671c-0.232 0.128-0.306 0.229-0.167 0.227 0.137-2e-3 0.438-0.11 0.667-0.241s0.304-0.234 0.166-0.228c-0.137 6e-3 -0.437 0.114-0.666 0.242m136.5 1.751c-0.277 0.226-0.305 0.283-0.084 0.168 0.544-0.281 0.845-0.512 0.667-0.51-0.092 0-0.354 0.154-0.583 0.342m-3.709 1.913c-0.646 0.351-0.573 0.472 0.084 0.138 0.628-0.319 0.739-0.402 0.527-0.393-0.084 4e-3 -0.359 0.119-0.611 0.255m-4.333 2.416c-0.344 0.182-0.625 0.368-0.625 0.413 0 0.046 0.3-0.07 0.667-0.257 0.366-0.187 0.666-0.376 0.666-0.42 0-0.109-1e-3 -0.109-0.708 0.264m-5.167 2.584c-0.646 0.351-0.573 0.472 0.084 0.138 0.628-0.319 0.739-0.402 0.527-0.393-0.084 4e-3 -0.359 0.119-0.611 0.255m-140.5 0.5c-0.623 0.338-0.585 0.479 0.042 0.155 0.275-0.142 0.5-0.294 0.5-0.338 0-0.107-0.018-0.101-0.542 0.183m137.34 1.126c-0.798 0.383-1.454 0.753-1.459 0.822-4e-3 0.07 0.667-0.212 1.492-0.626 0.825-0.415 1.5-0.79 1.5-0.835 0-0.105 0.134-0.161-1.533 0.639m-7.633 3.779c-0.505 0.266-0.858 0.488-0.786 0.492 0.177 0.011 1.786-0.81 1.786-0.911 0-0.112 0.023-0.122-1 0.419m-3.667 1.675c-1.091 0.566-1.01 0.648 0.121 0.12 0.956-0.446 0.952-0.444 0.865-0.529-0.038-0.037-0.482 0.147-0.986 0.409m-8.333 3.923c-0.802 0.444-0.774 0.454 0.208 0.076 0.344-0.133 0.625-0.301 0.625-0.374 0-0.172 0.038-0.186-0.833 0.298m-137.71 1.209c-0.252 0.152-0.459 0.338-0.459 0.413s0.225-0.024 0.5-0.22c0.741-0.527 0.714-0.649-0.041-0.193m126.54 4.026c-0.321 0.176-0.523 0.323-0.45 0.327 0.177 9e-3 1.117-0.48 1.117-0.581 0-0.109-0.01-0.105-0.667 0.254m-138.27 3.547c-1.105 0.762-2.133 1.558-1.73 1.339 0.292-0.159 2.879-1.876 2.984-1.981 0.305-0.305-0.419 0.066-1.254 0.642m130.1 0.203c-0.412 0.221-0.69 0.405-0.618 0.409 0.177 0.011 1.452-0.644 1.452-0.745 0-0.111 7e-3 -0.114-0.834 0.336m-4.166 2c-0.413 0.221-0.691 0.405-0.619 0.409 0.177 0.011 1.452-0.644 1.452-0.745 0-0.111 7e-3 -0.114-0.833 0.336m-4.5 2c-0.413 0.221-0.675 0.402-0.584 0.402 0.092 0 0.505-0.181 0.917-0.402s0.675-0.401 0.583-0.401c-0.091 0-0.504 0.18-0.916 0.401m-130.08 1.852l-0.666 0.597 0.75-0.548c0.412-0.302 0.781-0.571 0.819-0.599 0.038-0.029 1e-3 -0.051-0.083-0.049-0.084 1e-3 -0.453 0.271-0.82 0.599m125.88 0.16c-0.646 0.351-0.573 0.472 0.084 0.138 0.628-0.319 0.739-0.402 0.527-0.393-0.084 4e-3 -0.359 0.119-0.611 0.255m-3.291 1.488c-0.413 0.221-0.691 0.405-0.619 0.409 0.177 0.011 1.452-0.644 1.452-0.745 0-0.111 7e-3 -0.114-0.833 0.336m-12.209 5.928c-0.527 0.272-0.958 0.532-0.958 0.577 0 0.046 0.45-0.144 1-0.421 0.55-0.278 1-0.542 1-0.586 0-0.111 0.031-0.124-1.042 0.43m-121.38 0.593c-0.299 0.255-0.361 0.357-0.153 0.253 0.306-0.152 0.879-0.7 0.715-0.684-0.034 3e-3 -0.287 0.197-0.562 0.431m112.71 3.74c-0.527 0.272-0.959 0.532-0.959 0.578 0 0.045 0.45-0.144 1-0.422s1-0.541 1-0.586c0-0.111 0.031-0.124-1.041 0.43m-2.959 1.406c-0.229 0.131-0.341 0.238-0.25 0.238 0.092 0 0.355-0.107 0.584-0.238s0.341-0.238 0.25-0.238c-0.092 0-0.354 0.107-0.584 0.238m-4.041 2.261c-0.344 0.182-0.625 0.368-0.625 0.413 0 0.046 0.3-0.07 0.666-0.257 0.367-0.187 0.667-0.376 0.667-0.42 0-0.109-1e-3 -0.109-0.708 0.264m-114.91 0.031c-0.305 0.394-0.441 0.748-0.176 0.458 0.125-0.138 0.333-0.344 0.462-0.458 0.129-0.116 0.154-0.209 0.054-0.209-0.098 0-0.252 0.094-0.34 0.209m111.04 1.969c-0.561 0.359-0.484 0.422 0.158 0.129 0.234-0.106 0.425-0.256 0.425-0.333 0-0.175 0.018-0.181-0.583 0.204m-113.76 0.434l-0.404 0.445 0.453-0.32c0.249-0.176 0.456-0.376 0.458-0.445 9e-3 -0.205-0.082-0.148-0.507 0.32m109.55 2.053c-0.558 0.341-0.769 0.639-0.25 0.353 0.387-0.212 0.981-0.673 0.875-0.678-0.046-3e-3 -0.327 0.144-0.625 0.325m-113.97 2.044l-0.49 0.541 0.542-0.489c0.298-0.269 0.541-0.513 0.541-0.542 0-0.129-0.137-0.015-0.593 0.49m-3.317 3.205c-1.005 0.956-1.788 1.777-1.742 1.823 0.047 0.047 0.906-0.737 1.908-1.742 2.301-2.308 2.218-2.349-0.166-0.081m-3.217 3.425c-0.3 0.272-0.482 0.495-0.406 0.495 0.075 0 0.353-0.225 0.617-0.5 0.612-0.64 0.494-0.637-0.211 5e-3m106.6 0.338l-0.393 0.343 0.5-0.293c0.658-0.385 0.668-0.393 0.463-0.393-0.097 0-0.353 0.154-0.57 0.343m-2.56 2.093l-1 0.928 1-0.799c1.38-1.103 1.339-1.066 1.158-1.061-0.087 2e-3 -0.608 0.422-1.158 0.932m-108.39 2.283c-0.199 0.212-0.362 0.441-0.362 0.508 0 0.068 0.188-0.079 0.417-0.326 0.229-0.248 0.416-0.477 0.416-0.509 0-0.129-0.124-0.042-0.471 0.327m-1.779 2.114c-0.166 0.183-0.217 0.333-0.115 0.333 0.103 0 0.267-0.15 0.365-0.333s0.15-0.333 0.115-0.333c-0.034 0-0.199 0.15-0.365 0.333m104.87 0.59c-0.252 0.233-0.457 0.472-0.457 0.531 0 0.06 0.225-0.108 0.5-0.371 0.459-0.44 0.572-0.583 0.457-0.583-0.024 0-0.249 0.19-0.5 0.423m-106.9 2.035c-0.492 0.677-0.644 1.021-0.238 0.542 0.375-0.444 0.726-1 0.63-1-0.032 0-0.208 0.206-0.392 0.458m104.31 1.417c-0.235 0.294-0.732 1.291-0.644 1.291 0.041 0 0.262-0.337 0.493-0.75 0.415-0.743 0.471-0.943 0.151-0.541m-106.85 2.148c-0.118 0.189-0.177 0.379-0.132 0.424 0.044 0.045 0.168-0.082 0.275-0.281 0.252-0.47 0.135-0.587-0.143-0.143m-2.485 3.768c-0.432 0.623-0.572 0.875-0.488 0.875 0.039 0 0.27-0.3 0.513-0.666 0.493-0.746 0.471-0.926-0.025-0.209m-2.372 4.375c-0.187 0.367-0.303 0.667-0.257 0.667s0.236-0.3 0.423-0.667c0.187-0.366 0.303-0.666 0.257-0.666s-0.236 0.3-0.423 0.666m114.9 3.07c0.448 0.426 0.86 0.724 0.917 0.663 0.056-0.061-2e-3 -0.149-0.13-0.194-0.127-0.045-0.54-0.344-0.916-0.663-0.488-0.414-0.451-0.358 0.129 0.194m3.269 2.506c0 0.113 2.015 1.465 2.082 1.398 0.031-0.032-0.425-0.376-1.013-0.766-0.588-0.391-1.069-0.675-1.069-0.632m8 4.839c0 0.114 1.021 0.62 1.097 0.544 0.036-0.036-0.196-0.19-0.515-0.343-0.32-0.152-0.582-0.243-0.582-0.201m5.014 2.482c0.171 0.154 1.486 0.768 1.486 0.693 0-0.094-1.257-0.756-1.437-0.756-0.065 0-0.087 0.028-0.049 0.063m8.32 3.853c0.229 0.131 0.491 0.239 0.583 0.239s-0.021-0.108-0.25-0.239-0.492-0.238-0.583-0.238c-0.092 0 0.021 0.107 0.25 0.238m31.833 13.334c0.229 0.131 0.492 0.238 0.583 0.238 0.092 0-0.02-0.107-0.25-0.238-0.229-0.131-0.491-0.239-0.583-0.239s0.021 0.108 0.25 0.239m-172.66-0.074c-3e-3 0.051 0.182 0.346 0.411 0.657s0.416 0.494 0.416 0.407c-1e-3 -0.169-0.817-1.219-0.827-1.064m3.321 4.199c0.408 0.435 0.765 0.791 0.791 0.791 0.126 0-7e-3 -0.149-0.743-0.84l-0.791-0.743 0.743 0.792m181.57 1.208c0.174 0.132 0.394 0.191 0.489 0.133 0.099-0.062 0.036-0.161-0.15-0.233-0.521-0.204-0.679-0.158-0.339 0.1m-178.1 1.833c0.273 0.23 0.547 0.417 0.609 0.417 0.063 0-0.109-0.187-0.381-0.417-0.273-0.229-0.547-0.416-0.609-0.416-0.063 0 0.109 0.187 0.381 0.416m186.04 1.812c0.253 0.228 1.152 0.585 1.152 0.459 0-0.085-0.236-0.237-0.525-0.338-0.542-0.189-0.748-0.228-0.627-0.121m-182.35 0.59c0.23 0.188 0.492 0.341 0.584 0.342 0.178 1e-3 -0.123-0.229-0.667-0.51-0.221-0.115-0.193-0.058 0.083 0.168m186.33 1.258c0 0.046 0.3 0.237 0.666 0.424 0.367 0.187 0.667 0.302 0.667 0.256 0-0.045-0.3-0.236-0.667-0.423-0.366-0.187-0.666-0.303-0.666-0.257m-182.67 0.839c0 0.114 1.02 0.62 1.097 0.543 0.036-0.036-0.196-0.19-0.516-0.342-0.319-0.153-0.581-0.243-0.581-0.201m194.67 5.728c0 0.171 0.504 0.407 0.621 0.291 0.041-0.041-0.083-0.158-0.274-0.26s-0.347-0.117-0.347-0.031m4.035 2.607c0.338 0.229 0.673 0.416 0.745 0.416 0.071 0-0.146-0.187-0.483-0.416s-0.672-0.417-0.744-0.417 0.145 0.188 0.482 0.417m4.631 3.166c0.311 0.23 0.607 0.417 0.658 0.416 0.157-1e-3 -0.898-0.82-1.065-0.826-0.087-4e-3 0.097 0.181 0.407 0.41m4.118 3.245c0.155 0.181 0.315 0.295 0.356 0.254 0.099-0.099-0.309-0.582-0.492-0.582-0.08 0-0.019 0.148 0.136 0.328m1.382 1.255c0.311 0.321 0.603 0.584 0.649 0.584s-0.171-0.263-0.482-0.584-0.603-0.583-0.649-0.583 0.171 0.262 0.482 0.583m2.246 2.055c0.639 0.658 1.188 1.195 1.22 1.195 0.154 0-0.982-1.229-1.64-1.774-0.512-0.424-0.381-0.244 0.42 0.579m4.088 4.612c0.215 0.229 0.419 0.417 0.453 0.417 0.139 0-0.548-0.824-0.691-0.828-0.084-3e-3 0.022 0.182 0.238 0.411m-123.17 2.409c0 0.164 0.646 0.418 0.763 0.3 0.04-0.039-0.116-0.157-0.346-0.262-0.229-0.104-0.417-0.122-0.417-0.038m125.5 1.071c0 0.179 0.496 1.103 0.592 1.103 0.046 0-0.041-0.243-0.192-0.541-0.31-0.609-0.4-0.736-0.4-0.562m-120.25 2.604c0.166 0.184 0.339 0.299 0.383 0.254 0.112-0.112-0.304-0.588-0.514-0.588-0.094 0-0.035 0.15 0.131 0.334m2.532 2.914c0.152 0.32 0.306 0.552 0.342 0.515 0.077-0.076-0.429-1.096-0.543-1.096-0.042 0 0.048 0.261 0.201 0.581m0.384 2.002c0 0.229 0.075 0.417 0.166 0.417 0.092 0 0.167-0.188 0.167-0.417s-0.075-0.417-0.167-0.417c-0.091 0-0.166 0.188-0.166 0.417m-2.039 4.105c-0.3 0.287-0.396 0.418-0.213 0.292 0.495-0.344 0.997-0.814 0.869-0.814-0.062 0-0.357 0.235-0.656 0.522m-1.271 0.984c-0.517 0.43-0.284 0.425 0.264-6e-3 0.233-0.183 0.358-0.331 0.276-0.327-0.081 3e-3 -0.324 0.153-0.54 0.333m-4.232 2.711c-0.252 0.1-0.458 0.243-0.458 0.32 0 0.114 0.915-0.262 1.152-0.475 0.122-0.108-0.221-0.032-0.694 0.155m122.62 18.95c-0.142 0.275-0.221 0.5-0.175 0.5s0.199-0.225 0.342-0.5c0.142-0.275 0.221-0.5 0.175-0.5s-0.2 0.225-0.342 0.5m-7.585 12.04c-0.487 0.733-0.525 0.869-0.104 0.377 0.371-0.435 0.538-0.75 0.396-0.75-0.024 0-0.155 0.168-0.292 0.373m-203.66 1.12c-0.408 0.258-0.119 0.33 0.329 0.082 0.241-0.133 0.311-0.232 0.166-0.234-0.138-1e-3 -0.36 0.067-0.495 0.152m-3.213 1.602c-0.623 0.338-0.585 0.479 0.041 0.155 0.275-0.143 0.5-0.294 0.5-0.338 0-0.107-0.018-0.101-0.541 0.183m201.88 3.127l-0.575 0.694 0.7-0.658c0.386-0.363 0.701-0.682 0.701-0.709 0-0.191-0.336 0.082-0.826 0.673m-209.76 1.199c-0.367 0.226-0.601 0.411-0.52 0.411 0.171 1e-3 1.27-0.659 1.27-0.763 0-0.105-0.033-0.09-0.75 0.352m208.07 0.704l-0.574 0.625 0.625-0.575c0.581-0.534 0.701-0.675 0.574-0.675-0.028 0-0.309 0.281-0.625 0.625m-212.1 1.707c-0.197 0.079-0.404 0.219-0.461 0.311s0.123 0.054 0.4-0.084c0.276-0.138 0.502-0.282 0.502-0.322 0-0.085 9e-3 -0.086-0.441 0.095m209.02 1.376l-0.827 0.875 0.875-0.827c0.813-0.769 0.952-0.923 0.827-0.923-0.026 0-0.42 0.394-0.875 0.875m-3.837 3.5l-0.49 0.542 0.542-0.49c0.505-0.456 0.618-0.594 0.49-0.594-0.029 0-0.273 0.244-0.542 0.542m-7.055 5.81c-0.219 0.178-0.369 0.353-0.333 0.388 0.036 0.036 0.244-0.08 0.464-0.258 0.219-0.178 0.369-0.353 0.333-0.388-0.036-0.036-0.245 0.08-0.464 0.258m-3.436 2.583c-0.516 0.466-0.55 0.524-0.151 0.258 0.474-0.316 1.03-0.859 0.879-0.859-0.035 0-0.363 0.27-0.728 0.601m-211.59 0.607c-0.401 0.481-0.598 0.77-0.436 0.641 0.324-0.259 1.35-1.516 1.237-1.516-0.039 0-0.4 0.394-0.801 0.875m207.47 2.22c-0.252 0.137-0.458 0.284-0.458 0.327 0 0.161 0.263 0.06 0.667-0.255 0.495-0.388 0.421-0.413-0.209-0.072m-212.72 4.269c-0.071 0.121-0.237 0.388-0.369 0.594-0.132 0.207-0.199 0.375-0.149 0.375 0.152 0 0.824-1.012 0.733-1.104-0.047-0.046-0.144 0.014-0.215 0.135m204.68 0.981c-0.275 0.176-0.415 0.32-0.31 0.321 0.104 0 0.366-0.147 0.583-0.327 0.495-0.413 0.376-0.41-0.273 6e-3m-8.121 4.722c-0.891 0.53-1 0.701-0.182 0.289 0.383-0.193 0.744-0.427 0.801-0.52 0.132-0.214 0.126-0.212-0.619 0.231m-2.125 1.093c-0.407 0.258-0.118 0.33 0.329 0.082 0.242-0.133 0.312-0.232 0.167-0.234-0.138-1e-3 -0.361 0.067-0.496 0.152m-2.546 1.351c-0.344 0.182-0.625 0.368-0.625 0.413 0 0.046 0.3-0.07 0.667-0.257 0.366-0.187 0.666-0.376 0.666-0.42 0-0.109-1e-3 -0.109-0.708 0.264m-3.167 1.667c-0.343 0.181-0.625 0.367-0.625 0.413 0 0.045 0.3-0.071 0.667-0.258s0.667-0.376 0.667-0.42c0-0.109-2e-3 -0.108-0.709 0.265m-196.41 13.655c0 0.413 0.033 0.582 0.073 0.375 0.039-0.206 0.039-0.543 0-0.75-0.04-0.206-0.073-0.037-0.073 0.375m-3e-3 2.084c2e-3 0.366 0.036 0.497 0.076 0.289 0.04-0.207 0.038-0.507-3e-3 -0.666-0.042-0.16-0.075 0.01-0.073 0.377m5.692 12.891c0.06 0.096 0.462 0.405 0.895 0.687l0.788 0.512-0.584-0.515c-0.659-0.582-1.271-0.964-1.099-0.684m8.099 4.942c0.23 0.131 0.492 0.238 0.584 0.238 0.091 0-0.021-0.107-0.25-0.238s-0.492-0.238-0.584-0.238c-0.091 0 0.021 0.107 0.25 0.238m51.667 3.583c0 0.092 0.112 0.167 0.25 0.167s0.25-0.075 0.25-0.167c0-0.091-0.112-0.166-0.25-0.166s-0.25 0.075-0.25 0.166m-26.206 1.118c0.207 0.04 0.507 0.039 0.666-3e-3 0.16-0.042-0.01-0.074-0.377-0.073-0.366 2e-3 -0.497 0.036-0.289 0.076m10.164 0c0.207 0.04 0.544 0.04 0.75 0 0.207-0.04 0.038-0.072-0.375-0.072-0.412 0-0.581 0.032-0.375 0.072" fill="#d3badb"/>
</g>
</svg>