<svg width="185" height="195" viewBox="0 0 185 195" fill="none" xmlns="http://www.w3.org/2000/svg">
<path d="M132.533 0.414886C163.868 0.414886 184.918 23.444 184.918 57.7112V136.794C184.918 171.062 163.868 194.091 132.524 194.091H52.3996C21.0651 194.091 0.0148926 171.062 0.0148926 136.794V57.7112C0.0148926 23.444 21.0651 0.414886 52.3996 0.414886H132.533ZM142.728 102.579C132.818 96.1036 125.167 105.198 123.103 108.106C121.114 110.914 119.403 114.012 117.599 117.11C113.193 124.755 108.145 133.57 99.4058 138.696C86.7065 146.062 77.0658 139.276 70.1305 134.339C67.5274 132.5 64.9987 130.761 62.4793 129.602C56.2691 126.794 50.6818 129.992 42.3891 141.025C38.0382 146.791 33.7246 152.507 29.3551 158.204C26.7428 161.612 27.3656 166.868 30.8891 169.147C36.5136 172.774 43.3746 174.723 51.128 174.723H129.044C133.441 174.723 137.848 174.094 142.05 172.655C151.514 169.417 159.026 162.001 162.949 152.208C166.258 143.973 167.867 133.979 164.771 125.665C163.739 122.906 162.196 120.338 160.03 118.08C154.349 112.173 149.041 106.657 142.728 102.579ZM60.0978 39.1501C47.352 39.1501 36.9955 50.0127 36.9955 63.3596C36.9955 76.7065 47.352 87.5691 60.0978 87.5691C72.8342 87.5691 83.2001 76.7065 83.2001 63.3596C83.2001 50.0127 72.8342 39.1501 60.0978 39.1501Z" fill="#D1D1D1"/>
</svg>
